<?xml version="1.0" standalone="no"?>
<!DOCTYPE svg PUBLIC "-//W3C//DTD SVG 20010904//EN"
 "http://www.w3.org/TR/2001/REC-SVG-20010904/DTD/svg10.dtd">
<svg version="1.0" xmlns="http://www.w3.org/2000/svg"
 width="290.000000pt" height="425.000000pt" viewBox="0 0 290.000000 425.000000"
 preserveAspectRatio="xMidYMid meet">
<metadata>
Created by potrace 1.15, written by Peter Selinger 2001-2017
</metadata>
<g transform="translate(0.000000,425.000000) scale(0.100000,-0.100000)"
fill="#000000" stroke="none">
<path d="M0 2125 l0 -2125 1450 0 1450 0 -1 103 c-1 74 -3 93 -9 68 -12 -51
-60 -112 -109 -138 l-44 -23 -1282 0 -1281 0 -50 25 c-35 17 -58 38 -79 72
l-30 48 -3 1950 c-3 2164 -8 1995 63 2068 19 20 52 41 73 46 25 7 459 11 1310
11 1126 0 1277 -2 1310 -15 63 -27 105 -78 123 -150 4 -19 7 10 8 78 l1 107
-1450 0 -1450 0 0 -2125z"/>
<path d="M1430 4135 c-18 -21 -5 -47 22 -43 26 3 37 36 16 49 -18 12 -24 11
-38 -6z"/>
<path d="M270 3991 c-7 -13 -10 -616 -10 -1879 0 -1718 1 -1861 17 -1873 13
-12 208 -14 1180 -14 l1165 0 19 24 c19 23 19 66 19 1863 0 1860 0 1868 -34
1890 -6 4 -536 8 -1178 8 -1144 0 -1168 0 -1178 -19z m260 -80 c0 -45 -4 -53
-55 -110 -30 -34 -55 -71 -55 -81 0 -17 -7 -20 -55 -20 l-55 0 0 60 c0 61 8
72 30 45 35 -42 130 3 130 61 0 29 -34 74 -57 74 -7 0 -13 5 -13 10 0 6 28 10
65 10 l65 0 0 -49z m213 36 c4 -1 -29 -38 -73 -82 l-80 -80 0 82 c0 77 1 82
23 85 19 3 109 -1 130 -5z m182 -9 c0 -23 -543 -568 -566 -568 -51 0 -66 71
-21 97 l27 16 -33 33 c-30 30 -33 38 -30 81 l3 48 38 -1 c41 -1 74 -25 88 -63
9 -22 20 -13 205 170 107 107 205 197 217 201 38 11 72 5 72 -14z m682 -129
c81 -83 149 -154 151 -159 2 -5 -66 -79 -150 -164 l-154 -155 -160 160 -159
159 155 155 c85 85 158 155 162 155 4 0 74 -68 155 -151z m658 -49 l201 -200
16 34 c12 24 27 38 53 46 53 18 65 9 65 -49 0 -38 -6 -56 -25 -79 -22 -26 -23
-31 -9 -43 30 -25 36 -49 19 -75 -34 -52 -24 -61 -411 334 -220 225 -224 231
-145 232 32 0 52 -17 236 -200z m245 190 c0 -5 -5 -10 -12 -10 -23 0 -58 -43
-58 -72 0 -63 88 -103 127 -58 23 26 33 10 33 -57 l0 -53 -55 0 c-49 0 -55 2
-55 20 0 11 -27 50 -60 85 -52 56 -60 70 -60 103 0 21 3 42 7 45 10 11 133 8
133 -3z m-1478 -62 c-58 -58 -63 -61 -79 -45 -16 15 -14 19 28 62 35 36 51 45
79 45 l34 0 -62 -62z m304 55 c-4 -5 -75 -79 -158 -165 l-150 -157 -44 37
c-24 20 -44 41 -44 46 0 6 53 64 117 128 l118 118 84 0 c46 0 81 -3 77 -7z
m509 -106 c63 -62 115 -120 115 -128 0 -8 -17 -32 -38 -52 l-38 -37 -159 160
c-88 89 -162 163 -164 166 -2 2 35 4 83 4 l87 0 114 -113z m78 71 c41 -47 43
-51 24 -66 -10 -9 -27 2 -72 48 l-59 60 35 0 c29 0 42 -7 72 -42z m397 -40 l0
-81 -67 63 c-38 35 -77 72 -88 82 -19 18 -17 18 68 18 l87 0 0 -82z m-1907 10
c6 -18 -3 -38 -17 -38 -18 0 -35 21 -29 36 6 17 40 18 46 2z m2133 1 c3 -6 -1
-18 -10 -27 -15 -15 -17 -15 -32 0 -19 19 -11 38 16 38 10 0 22 -5 26 -11z
m-1656 -92 c0 -2 -17 -19 -37 -38 -24 -21 -30 -25 -18 -9 26 33 55 58 55 47z
m1191 -48 c14 -27 7 -23 -32 17 -31 34 -32 35 -6 19 15 -10 32 -26 38 -36z
m-1552 -3 c9 -10 8 -16 -4 -26 -19 -16 -41 1 -32 24 8 20 21 20 36 2z m1878
-2 c8 -21 -13 -42 -28 -27 -13 13 -5 43 11 43 6 0 13 -7 17 -16z m-1478 -109
c30 -34 41 -75 22 -75 -16 0 -83 88 -76 100 10 17 21 12 54 -25z m1107 24 c3
-6 -14 -32 -40 -57 -43 -44 -46 -45 -46 -22 0 14 14 38 32 57 34 36 43 39 54
22z m-1238 -30 c18 -16 30 -34 27 -39 -4 -6 -3 -10 2 -9 24 4 25 -3 3 -18 -14
-10 -29 -17 -33 -15 -5 1 -6 -2 -2 -7 3 -6 12 -8 20 -4 8 3 15 3 15 0 0 -3 -6
-7 -14 -10 -8 -3 -30 12 -52 35 -22 23 -33 38 -27 34 9 -5 11 -2 7 9 -4 10
-13 14 -23 10 -10 -4 -7 3 8 19 14 15 27 26 30 26 3 0 21 -14 39 -31z m1366
23 c2 -4 -1 -18 -8 -31 -9 -15 -16 -20 -20 -12 -4 6 -12 11 -18 11 -6 0 -5 -7
3 -17 12 -16 12 -17 -2 -5 -18 13 -30 5 -42 -31 -4 -11 -12 -15 -19 -11 -7 4
-4 -2 6 -14 17 -19 22 -20 35 -9 9 8 23 17 31 21 8 4 2 -3 -13 -17 l-29 -24
60 -69 c33 -38 81 -88 107 -110 l47 -40 51 53 51 54 38 -38 c21 -20 38 -42 38
-48 0 -5 -31 -38 -70 -73 l-69 -62 -53 6 c-29 4 -54 8 -56 9 -2 2 4 15 14 30
l17 27 -111 111 -112 111 -40 -39 -40 -39 0 50 c0 45 4 54 39 88 27 26 45 37
56 32 11 -4 15 -2 12 6 -2 7 14 30 37 50 42 39 51 43 60 30z m21 -31 c3 -5 2
-12 -3 -15 -5 -3 -9 1 -9 9 0 17 3 19 12 6z m-1011 -106 c-6 -14 -9 -14 -26 2
-34 31 -60 72 -52 85 11 17 85 -66 78 -87z m636 75 c0 -13 -60 -80 -71 -80
-18 0 -8 30 22 65 28 32 49 38 49 15z m-903 -62 c29 -28 33 -38 33 -82 l0 -51
-36 38 c-19 20 -39 37 -43 37 -4 0 -20 -15 -36 -32 -15 -18 -62 -68 -104 -110
l-75 -78 17 -29 c15 -26 15 -30 1 -35 -9 -3 -37 -6 -62 -6 -45 0 -50 3 -114
69 l-67 69 38 40 39 40 54 -54 54 -55 101 103 c56 57 113 118 128 136 15 17
30 32 33 32 3 0 21 -14 39 -32z m188 -57 l75 -75 0 -63 c0 -54 -4 -68 -25 -88
-55 -56 -138 -16 -139 68 -1 96 4 240 9 236 2 -2 38 -38 80 -78z m805 -61 c0
-136 -1 -142 -25 -165 -16 -17 -35 -25 -57 -25 -60 1 -88 40 -88 122 0 52 0
53 77 130 43 43 81 78 85 78 5 0 8 -63 8 -140z m-1232 94 c42 -29 18 -104 -35
-104 -28 0 -63 33 -63 59 0 20 43 61 64 61 6 0 22 -7 34 -16z m1650 -6 c20
-17 14 -65 -10 -82 -30 -21 -54 -20 -78 4 -56 56 25 128 88 78z m-1010 -50
c32 -32 1 -85 -42 -74 -31 8 -40 33 -21 62 17 26 44 31 63 12z m346 -4 c30
-30 13 -74 -29 -74 -60 0 -59 88 2 90 6 0 19 -7 27 -16z m-804 -104 c11 -7 12
-14 4 -27 -15 -24 -33 -28 -40 -9 -7 18 1 46 13 46 4 0 15 -5 23 -10z m90 -47
c0 -91 -117 -138 -190 -77 -31 27 -31 27 -12 47 19 18 22 18 43 3 53 -37 119
-6 119 56 0 30 0 31 20 13 11 -10 20 -29 20 -42z m1157 41 c3 -8 -2 -23 -11
-32 -16 -16 -18 -16 -31 2 -11 14 -12 23 -4 33 15 18 38 16 46 -3z m-97 -14
c0 -28 44 -70 72 -70 13 0 33 7 45 15 18 13 26 13 43 3 26 -17 26 -22 -11 -52
-47 -40 -110 -37 -155 8 -35 35 -42 63 -24 97 14 25 30 24 30 -1z m-1563 -118
c4 -8 -20 -40 -61 -80 l-66 -67 0 134 0 133 61 -53 c34 -29 64 -59 66 -67z
m2150 -128 c-2 -2 -32 24 -67 57 l-63 61 64 63 64 64 3 -121 c1 -66 1 -122 -1
-124z m-1243 215 c31 -25 34 -61 6 -89 -37 -37 -93 -20 -105 32 -5 21 -1 33
19 52 31 31 45 32 80 5z m304 -6 c17 -23 15 -63 -5 -85 -35 -39 -113 -8 -113
46 0 55 84 82 118 39z m-173 -33 c0 -8 -10 -16 -22 -18 -18 -3 -23 2 -23 18 0
16 5 21 23 18 12 -2 22 -10 22 -18z m-365 -111 c-5 -9 -15 -21 -24 -28 -11
-10 -17 -8 -30 11 -22 31 -21 33 23 33 32 0 38 -3 31 -16z m760 10 c0 -3 -9
-14 -20 -24 -22 -20 -44 -15 -58 12 -9 16 -5 18 34 18 24 0 44 -3 44 -6z
m-1422 -161 c-145 -146 -138 -143 -138 -72 l0 59 93 87 92 87 28 -28 29 -28
-104 -105z m2058 70 l84 -82 0 -59 0 -60 -38 39 c-21 21 -73 72 -115 113 -42
40 -77 78 -77 84 0 16 31 47 48 47 8 0 52 -37 98 -82z m-1656 12 l0 -60 -58 0
c-57 0 -58 0 -117 60 l-59 60 117 0 117 0 0 -60z m1380 0 c-62 -57 -67 -60
-117 -60 l-53 0 0 60 0 60 118 0 117 -1 -65 -59z m-1250 25 c26 -32 -13 -81
-47 -59 -35 22 -23 74 17 74 10 0 23 -7 30 -15z m220 0 c16 -19 4 -35 -26 -35
-38 0 -31 44 7 49 4 1 12 -6 19 -14z m548 -13 c3 -16 -2 -22 -17 -22 -26 0
-36 17 -20 36 16 19 33 13 37 -14z m230 16 c32 -32 -2 -79 -43 -60 -39 18 -27
72 15 72 9 0 21 -5 28 -12z m-395 -123 l119 -125 -50 0 c-36 0 -59 -7 -86 -25
-30 -20 -38 -22 -42 -10 -3 7 -21 26 -40 40 l-34 26 -42 -39 -42 -40 -30 23
c-20 15 -48 25 -78 27 l-47 3 116 123 c63 67 120 122 126 122 7 0 65 -56 130
-125z m56 74 c30 -26 40 -41 35 -53 -6 -15 -16 -9 -60 35 -29 29 -51 56 -48
61 7 10 20 2 73 -43z m-339 -14 c-50 -51 -70 -60 -70 -32 0 18 82 86 105 87
15 0 7 -12 -35 -55z m-165 -60 c27 -26 31 -54 14 -88 -16 -30 -28 -37 -66 -37
-44 0 -73 30 -73 75 0 70 76 100 125 50z m744 -1 c27 -34 27 -78 0 -105 -30
-30 -95 -23 -122 13 -56 75 64 165 122 92z m-965 -25 c31 -15 60 -72 50 -102
-3 -12 -16 -32 -27 -44 -20 -22 -20 -23 -2 -43 14 -16 21 -17 32 -8 8 6 12 17
9 25 -4 10 7 13 46 13 l51 0 -48 -52 c-27 -29 -52 -57 -56 -62 -5 -5 -15 -3
-25 5 -12 9 -15 10 -10 1 4 -7 -2 -24 -16 -42 -13 -16 -31 -40 -41 -54 -35
-51 -117 -21 -117 42 0 38 31 65 72 64 18 0 41 6 50 15 20 18 25 4 6 -17 -11
-12 -10 -12 5 -1 9 7 17 10 17 6 0 -5 3 -6 6 -2 10 9 -49 77 -67 77 -31 0 -69
50 -69 89 0 76 67 120 134 90z m1166 -6 c70 -41 65 -129 -10 -168 -22 -11 -29
-23 -32 -53 -3 -39 -3 -39 25 -29 59 20 109 -54 72 -109 -22 -34 -76 -33 -104
2 -12 15 -21 33 -21 41 0 8 -4 12 -8 9 -11 -7 -42 30 -34 40 4 4 2 4 -5 0 -14
-8 -42 14 -89 72 l-35 42 50 0 c41 0 49 -3 45 -15 -8 -20 22 -31 41 -15 13 11
12 16 -10 42 -35 42 -34 91 4 129 34 33 69 37 111 12z m416 -83 c93 -81 93
-82 37 -136 -26 -25 -66 -60 -88 -77 l-40 -32 19 30 c29 44 46 78 46 92 0 7 6
10 13 7 8 -3 20 2 27 11 17 20 2 50 -24 50 -18 0 -47 46 -51 83 -2 12 -2 22 0
22 2 0 30 -23 61 -50z m-2030 17 c-5 -37 -30 -77 -48 -77 -10 0 -21 -7 -24
-15 -7 -18 14 -47 30 -42 11 4 60 -92 51 -101 -2 -3 -39 26 -81 64 l-77 68 69
63 c65 59 85 69 80 40z m225 -36 c40 -40 41 -105 3 -150 -23 -27 -32 -31 -78
-31 -45 0 -56 4 -82 31 -50 52 -34 143 31 170 45 18 95 10 126 -20z m1665 11
c45 -36 56 -90 29 -142 -20 -38 -43 -50 -99 -50 -76 0 -122 65 -102 145 14 55
125 86 172 47z m-570 -381 c180 -181 330 -334 332 -340 2 -5 -147 -161 -330
-346 l-333 -337 -333 337 c-183 185 -332 340 -330 345 5 13 650 670 658 670 4
0 155 -148 336 -329z m-651 258 c0 -56 2 -63 33 -90 31 -28 32 -30 18 -57 -8
-15 -23 -35 -34 -45 -17 -16 -21 -16 -32 -2 -14 17 -40 20 -40 5 0 -6 6 -19
13 -31 11 -18 8 -24 -21 -50 -19 -17 -37 -29 -42 -27 -5 2 -19 19 -32 38 -13
19 -41 46 -61 59 l-38 25 118 118 c65 65 118 118 118 118 1 0 1 -27 0 -61z
m869 -180 c-3 -5 -11 -9 -18 -9 -19 0 -76 -60 -82 -87 -8 -32 -25 -29 -64 12
-28 29 -31 37 -20 49 7 9 9 23 6 32 -6 15 -9 15 -29 -5 l-23 -21 -21 22 c-42
47 -43 58 -11 102 26 36 29 48 26 93 l-5 52 124 -116 c67 -64 120 -119 117
-124z m-1119 170 c-10 -15 -25 -10 -19 6 4 8 10 12 15 9 5 -3 7 -10 4 -15z
m-545 -54 c10 -12 10 -18 0 -30 -19 -23 -30 -18 -30 15 0 33 11 38 30 15z
m2250 -10 c0 -25 -14 -34 -24 -16 -8 12 3 41 15 41 5 0 9 -11 9 -25z m-2087
-133 l98 -99 -36 -28 -37 -27 -46 43 c-26 24 -71 66 -99 94 l-53 49 32 33 c18
18 35 33 38 33 3 0 49 -44 103 -98z m2039 71 c15 -15 28 -32 28 -39 0 -14
-182 -184 -197 -184 -5 0 -22 13 -37 29 l-28 29 99 96 c54 53 100 96 102 96 3
0 18 -12 33 -27z m-1822 -16 c0 -12 -19 -40 -42 -64 -40 -40 -43 -42 -60 -26
-18 16 -17 19 33 69 54 54 69 59 69 21z m1538 -20 c51 -51 52 -54 34 -70 -17
-16 -21 -14 -66 32 -38 38 -47 53 -41 70 3 11 10 21 14 21 3 0 30 -24 59 -53z
m-1799 -203 c17 -19 31 -38 31 -42 0 -5 -15 -23 -34 -41 l-34 -33 -56 54 -56
54 0 73 0 73 59 -51 c33 -29 73 -68 90 -87z m2116 -29 c-9 -16 -33 -42 -52
-58 l-37 -27 -38 37 -39 38 88 85 88 86 3 -66 c2 -46 -1 -74 -13 -95z m-1815
111 c0 -22 -9 -45 -23 -62 l-23 -26 33 -33 c47 -47 45 -83 -8 -140 l-41 -45
36 -40 c56 -63 59 -110 8 -157 l-25 -23 22 -24 c17 -18 22 -33 19 -61 l-3 -36
-162 164 c-90 90 -163 169 -163 174 0 5 30 40 66 79 105 111 256 264 260 264
2 0 4 -15 4 -34z m1562 -137 c84 -88 154 -164 156 -169 4 -10 -293 -316 -320
-331 -29 -16 -23 43 7 79 l25 30 -30 30 c-45 46 -42 90 12 148 l41 45 -36 33
c-57 52 -61 114 -10 162 l25 23 -26 31 c-28 34 -35 80 -12 80 8 0 83 -72 168
-161z m-1462 5 c0 -2 -9 0 -20 6 -11 6 -20 13 -20 16 0 2 9 0 20 -6 11 -6 20
-13 20 -16z m-501 -98 c9 -10 8 -16 -4 -26 -17 -14 -45 -7 -45 13 0 29 30 37
49 13z m2229 -14 c3 -16 -2 -22 -16 -22 -24 0 -35 23 -19 39 16 16 31 8 35
-17z m-2225 -116 c7 -19 -18 -40 -38 -32 -15 6 -20 28 -8 39 12 12 41 7 46 -7z
m2230 2 c6 -18 -3 -38 -17 -38 -18 0 -35 21 -29 36 6 17 40 18 46 2z m-2134
-93 c17 -20 31 -39 31 -43 0 -7 -74 -80 -147 -147 l-33 -29 0 73 0 72 51 55
c29 30 55 54 59 54 5 0 22 -16 39 -35z m2087 -19 l44 -43 0 -77 0 -77 -90 87
-90 88 32 33 c17 18 38 33 46 33 8 0 34 -20 58 -44z m-1979 -104 l32 -28 -99
-99 -100 -99 -36 34 -36 35 99 92 c54 51 100 93 103 92 3 0 19 -12 37 -27z
m1902 -53 c49 -45 93 -89 96 -97 6 -15 -42 -75 -56 -70 -5 2 -51 45 -104 97
l-96 94 28 29 c15 15 30 28 35 28 4 0 48 -37 97 -81z m-1383 -72 c-21 -32 -4
-47 25 -21 18 17 20 16 45 -7 46 -43 47 -54 8 -93 -35 -35 -37 -39 -31 -92 l6
-55 -119 118 -119 117 37 21 c23 13 46 38 62 68 l25 47 39 -39 c37 -38 38 -39
22 -64z m822 58 c12 -32 55 -77 84 -88 8 -3 -31 -50 -102 -121 -63 -63 -117
-115 -120 -116 -3 0 -3 23 -2 50 3 42 -1 58 -23 91 -24 36 -25 44 -15 70 19
45 37 55 60 34 16 -15 23 -16 32 -7 10 10 10 17 -1 33 -11 19 -9 25 20 55 18
19 38 34 44 34 6 0 17 -16 23 -35z m-1224 -55 c25 -28 36 -50 36 -71 l0 -30
-60 53 c-33 29 -60 56 -60 60 0 7 30 27 41 28 4 0 23 -18 43 -40z m1610 22
c15 -18 13 -21 -43 -70 l-59 -51 -5 26 c-4 20 4 35 35 69 22 24 44 44 48 44 4
0 14 -8 24 -18z m-1417 -88 c10 -14 26 -34 35 -44 9 -10 14 -21 11 -24 -4 -3
-1 -6 6 -6 7 0 10 -4 7 -8 -3 -5 3 -8 12 -8 9 1 41 -25 71 -56 l54 -58 -47 0
c-32 0 -46 4 -46 14 0 25 -25 37 -46 22 -18 -13 -18 -15 -2 -33 31 -33 39 -71
24 -106 -18 -44 -42 -61 -84 -60 -78 2 -122 104 -67 158 13 14 31 25 40 25 14
0 19 16 16 53 -1 9 2 17 8 17 6 0 16 10 22 22 l12 21 -28 -21 c-35 -27 -55
-28 -89 -1 -17 14 -26 30 -26 50 0 64 82 94 117 43z m1254 5 c46 -46 -2 -126
-68 -113 -19 4 -35 14 -38 25 -4 11 -14 19 -23 20 -11 0 -12 3 -4 6 6 2 12 10
12 17 0 8 9 25 21 40 25 32 70 35 100 5z m-1785 -60 c3 -6 -3 -21 -15 -32
l-21 -21 0 32 c0 32 21 45 36 21z m2244 -14 c0 -14 -4 -25 -9 -25 -12 0 -23
29 -15 41 10 18 24 9 24 -16z m-2133 -42 c-12 -27 -27 -48 -33 -46 -6 2 -17
-4 -24 -13 -16 -18 -2 -49 21 -49 13 0 59 -67 59 -86 0 -21 -29 -5 -93 52 -66
60 -67 62 -50 82 27 31 135 119 139 114 3 -2 -6 -26 -19 -54z m2069 -23 c64
-61 63 -64 -27 -140 -69 -56 -94 -53 -53 8 13 19 24 39 24 43 0 5 6 6 13 3 21
-8 43 24 30 44 -5 10 -16 17 -24 17 -11 0 -59 83 -59 102 0 8 44 -27 96 -77z
m-1855 50 c42 -23 61 -102 38 -153 -20 -44 -97 -61 -153 -36 -34 16 -60 72
-52 114 13 67 105 108 167 75z m1693 -18 c80 -84 7 -212 -104 -182 -48 13 -80
51 -80 97 0 70 41 112 111 113 37 0 50 -5 73 -28z m-377 3 c5 -4 1 -4 -7 0
-13 8 -13 6 -1 -8 16 -20 33 -13 24 10 -4 11 2 8 20 -7 22 -19 25 -26 14 -39
-9 -12 -9 -13 1 -7 7 4 12 2 12 -8 0 -8 13 -23 29 -32 55 -32 66 -94 26 -142
-30 -36 -69 -45 -112 -27 -58 24 -71 92 -28 143 22 26 23 31 10 42 -18 15 -45
6 -45 -15 0 -11 -11 -15 -47 -15 l-46 0 54 59 c50 54 77 67 96 46z m-577 -160
c33 -34 54 -43 62 -27 2 4 17 20 34 35 l31 28 34 -20 c22 -14 51 -21 82 -21
l49 0 -124 -131 -123 -131 -123 128 -123 129 58 7 c32 5 65 9 74 10 9 1 15 8
12 15 -10 25 24 12 57 -22z m-284 -13 c16 -10 34 -48 34 -70 0 -36 -38 -72
-76 -72 -45 0 -74 29 -74 75 0 45 29 75 73 75 17 0 37 -4 43 -8z m740 0 c16
-10 34 -48 34 -70 0 -11 -9 -31 -21 -46 -25 -31 -76 -35 -108 -8 -55 45 -24
132 47 132 20 0 42 -4 48 -8z m-1397 -147 l84 -86 -27 -28 -27 -28 -94 90 -95
90 0 54 0 55 38 -30 c20 -17 75 -69 121 -117z m2100 16 c-11 -16 -52 -57 -91
-91 l-69 -62 -25 23 c-13 12 -24 26 -24 30 0 4 51 57 113 118 l112 110 3 -49
c2 -38 -2 -56 -19 -79z m-1299 -21 c12 -12 18 -26 14 -32 -4 -6 -3 -8 4 -4 6
3 22 -4 36 -17 28 -26 32 -37 15 -37 -18 0 -109 80 -109 96 0 20 17 17 40 -6z
m404 11 c7 -10 -68 -86 -86 -86 -7 0 -20 -4 -28 -9 -8 -5 10 17 40 48 55 57
65 63 74 47z m-824 -71 l0 -60 -117 0 -117 0 59 60 c59 60 60 60 117 60 l58 0
0 -60z m1382 0 l63 -60 -117 0 -118 0 0 60 0 60 54 0 c53 0 57 -2 118 -60z
m-1244 9 c4 -36 -21 -55 -53 -41 -44 20 -24 76 25 70 18 -2 26 -10 28 -29z
m990 19 c28 -28 1 -75 -37 -63 -11 3 -23 15 -26 26 -12 38 35 65 63 37z m-228
-48 c-13 -24 -23 -25 -40 -5 -19 22 5 48 31 34 15 -8 17 -14 9 -29z m-1348
-53 c22 -21 38 -45 36 -54 -2 -8 -31 -40 -65 -71 l-63 -55 0 133 0 133 26 -24
c15 -13 45 -41 66 -62z m804 72 c9 -16 -21 -43 -40 -36 -9 4 -16 16 -16 27 0
15 7 20 24 20 14 0 28 -5 32 -11z m1382 -174 l-3 -67 -65 61 -65 61 65 65 65
66 3 -60 c2 -33 2 -90 0 -126z m-1478 106 c7 -13 1 -16 -31 -16 -44 0 -45 2
-23 33 13 19 19 21 30 11 9 -7 19 -19 24 -28z m760 -13 c0 -1 -20 -3 -44 -3
-44 0 -44 0 -28 20 28 33 35 34 54 10 10 -13 18 -25 18 -27z m-1196 -37 c3 -5
-3 -20 -13 -33 l-20 -24 109 -115 109 -114 38 40 38 39 3 -49 c3 -44 0 -52
-32 -83 l-34 -35 -132 136 -132 136 -54 -56 -55 -56 -42 41 -42 42 70 70 69
70 58 0 c31 0 59 -4 62 -9z m239 -31 c32 -36 35 -78 7 -111 l-19 -24 -1 36 c0
62 -48 88 -106 58 -35 -17 -39 -18 -56 -2 -18 16 -17 17 8 44 44 46 123 46
167 -1z m431 19 c47 -37 24 -109 -36 -109 -33 0 -68 31 -68 60 0 24 42 70 63
70 8 0 26 -9 41 -21z m296 1 c41 -41 14 -110 -43 -110 -65 0 -91 70 -41 109
33 26 58 27 84 1z m520 -16 l24 -24 -21 -22 c-22 -21 -23 -21 -43 -3 -46 41
-120 9 -120 -53 l0 -26 -21 21 c-42 42 -1 127 66 135 49 7 89 -3 115 -28z
m262 -34 l72 -70 -44 -41 -45 -40 -52 58 c-32 36 -55 54 -60 48 -5 -5 -52 -55
-104 -110 -52 -55 -107 -115 -122 -134 l-28 -34 -40 40 c-37 37 -40 43 -37 88
l3 48 38 -38 37 -37 43 39 c23 22 74 73 114 114 l71 74 -19 24 c-26 32 -16 41
47 41 53 0 55 -1 126 -70z m-540 -1 c16 -22 18 -41 16 -164 l-3 -140 -82 80
c-83 80 -83 80 -83 132 0 70 14 101 51 117 40 17 77 8 101 -25z m-733 5 c16
-21 21 -41 21 -88 l0 -62 -75 -75 c-42 -40 -78 -76 -80 -78 -3 -2 -5 62 -5
142 0 134 2 149 20 167 31 31 93 27 119 -6z m329 -5 c4 -19 -27 -34 -41 -20
-14 14 0 43 20 39 10 -2 19 -10 21 -19z m-621 -55 c3 -8 -1 -22 -9 -30 -13
-14 -17 -14 -32 1 -13 13 -14 20 -5 31 15 19 38 18 46 -2z m1238 -9 c0 -23
-34 -33 -45 -14 -13 20 1 40 24 37 13 -2 21 -10 21 -23z m-485 -190 l154 -154
-19 -23 c-44 -53 -281 -288 -290 -288 -6 0 -80 70 -165 155 l-155 155 155 155
c85 85 157 155 160 155 3 0 75 -70 160 -155z m-297 114 c5 -9 7 -28 3 -42 -9
-38 -61 -39 -78 -2 -21 47 47 88 75 44z m345 9 c7 -7 12 -21 12 -33 0 -12 -5
-26 -12 -33 -7 -7 -21 -12 -33 -12 -12 0 -26 5 -33 12 -7 7 -12 21 -12 33 0
12 5 26 12 33 7 7 21 12 33 12 12 0 26 -5 33 -12z m-999 -285 c201 -204 278
-289 269 -294 -7 -5 -29 -9 -48 -9 -32 0 -51 16 -235 199 l-200 199 -18 -33
c-12 -25 -28 -37 -56 -46 -58 -17 -71 -8 -71 47 0 40 5 51 34 78 l33 32 -28
17 c-50 28 -34 96 22 97 9 0 144 -129 298 -287z m1926 263 c14 -20 14 -29 4
-48 -6 -13 -18 -27 -26 -31 -10 -6 -8 -15 12 -41 18 -24 25 -45 25 -80 0 -55
-12 -63 -66 -46 -27 9 -40 21 -51 48 l-15 35 -201 -201 c-198 -198 -203 -202
-244 -202 -23 0 -45 5 -48 10 -3 6 31 47 77 93 46 45 172 173 282 285 118 120
206 202 217 202 10 0 26 -11 34 -24z m-1914 -9 c28 -21 31 -52 8 -80 -25 -33
-55 -34 -86 -5 -29 27 -29 45 -1 75 24 25 54 29 79 10z m1643 -6 c25 -28 17
-72 -16 -91 -25 -13 -31 -13 -55 0 -38 21 -44 71 -11 94 30 21 61 20 82 -3z
m-1148 -123 c-8 -28 -62 -73 -71 -59 -6 11 64 95 73 87 2 -3 1 -15 -2 -28z
m644 -55 c0 -22 -17 -15 -49 22 -47 54 -40 78 9 30 22 -21 40 -45 40 -52z
m321 50 c13 -16 12 -17 -3 -4 -17 13 -22 21 -14 21 2 0 10 -8 17 -17z m-31 -2
c0 -5 -7 -11 -16 -13 -14 -3 -13 -7 7 -32 21 -27 21 -28 1 -15 -27 17 -34 47
-14 59 21 12 22 12 22 1z m-1140 -31 c0 -11 -15 -37 -34 -58 -28 -30 -37 -35
-47 -24 -11 10 -5 21 31 57 24 25 45 45 47 45 2 0 3 -9 3 -20z m1072 -82 c-17
-17 -82 47 -82 81 0 24 2 23 47 -21 37 -38 45 -50 35 -60z m-1294 62 c-7 -11
-17 -20 -22 -20 -5 0 -1 9 9 20 10 11 20 20 22 20 2 0 -2 -9 -9 -20z m1407
-10 c-3 -5 -2 -10 4 -10 5 0 12 6 14 13 3 6 6 0 6 -14 1 -36 -21 -54 -36 -30
-10 16 -9 18 10 14 20 -4 20 -3 4 7 -15 10 -16 30 -1 30 3 0 2 -4 -1 -10z
m-1355 -21 c0 -5 -4 -7 -10 -4 -5 3 -10 -1 -10 -9 0 -20 -14 -20 -30 -1 -11
13 -10 14 4 9 9 -3 16 -1 16 5 0 6 7 11 15 11 8 0 15 -5 15 -11z m466 -327
l-81 -3 -119 121 -120 120 44 45 44 45 157 -162 156 -163 -81 -3z m700 231
c-4 -11 -56 -68 -116 -127 l-109 -106 -84 0 -85 0 161 165 162 165 39 -39 c28
-28 36 -44 32 -58z m-1536 -3 c0 -10 25 -47 55 -81 51 -57 55 -65 55 -110 l0
-49 -67 0 -68 0 38 31 c45 37 50 77 12 114 -31 32 -80 33 -112 3 l-23 -21 0
66 0 67 55 0 c48 0 55 -3 55 -20z m113 -16 c-3 -8 -12 -14 -19 -14 -20 0 -30
30 -13 40 17 11 40 -7 32 -26z m2065 -23 c4 -60 -10 -85 -27 -52 -9 15 -21 21
-47 21 -70 0 -111 -83 -64 -130 11 -11 26 -20 34 -20 8 0 18 -4 21 -10 4 -6
-22 -10 -69 -10 l-76 0 0 46 c0 41 5 50 54 102 30 32 58 70 61 85 7 27 10 28
59 25 l51 -3 3 -54z m-188 28 c0 -25 -33 -22 -38 4 -2 12 3 17 17 17 15 0 21
-6 21 -21z m-1548 -33 c8 -16 4 -15 -16 6 -14 15 -26 30 -26 34 0 11 31 -18
42 -40z m1203 4 c-16 -17 -33 -30 -39 -30 -5 0 5 16 24 35 18 19 36 32 39 30
2 -3 -8 -19 -24 -35z m-1315 -192 c0 -9 -121 -11 -144 -2 -13 5 -16 22 -16 86
l0 80 80 -78 c44 -43 80 -81 80 -86z m1570 83 l0 -78 -50 -7 c-28 -4 -65 -4
-83 -1 l-33 6 81 80 c44 43 81 79 83 79 1 0 2 -35 2 -79z m-1285 -21 l59 -60
-35 0 c-28 0 -43 9 -79 45 -37 37 -41 46 -30 60 7 8 15 15 19 15 4 0 33 -27
66 -60z m925 27 c0 -5 -17 -27 -37 -48 -30 -31 -46 -39 -73 -39 l-34 0 59 60
c45 46 62 57 72 48 7 -6 13 -15 13 -21z m-1552 15 c17 -12 4 -42 -18 -42 -22
0 -32 24 -17 39 13 13 18 13 35 3z m2137 -17 c0 -22 -31 -33 -47 -17 -17 17
-1 44 24 40 15 -2 23 -10 23 -23z"/>
<path d="M627 3913 c-13 -12 -7 -23 13 -23 11 0 20 7 20 15 0 15 -21 21 -33 8z"/>
<path d="M605 3669 c-10 -15 1 -23 20 -15 9 3 13 10 10 16 -8 13 -22 13 -30
-1z"/>
<path d="M344 3589 c-10 -17 13 -36 27 -22 12 12 4 33 -11 33 -5 0 -12 -5 -16
-11z"/>
<path d="M524 3586 c-8 -22 3 -33 18 -18 9 9 9 15 0 24 -9 9 -13 7 -18 -6z"/>
<path d="M405 3489 c-10 -15 1 -23 20 -15 9 3 13 10 10 16 -8 13 -22 13 -30
-1z"/>
<path d="M1349 3783 c-99 -103 -134 -144 -112 -130 6 4 18 -2 28 -13 18 -20
20 -19 99 65 45 47 85 85 89 85 5 0 43 -36 84 -81 62 -65 80 -79 97 -74 12 4
27 7 34 7 6 1 12 4 11 7 0 3 -51 59 -113 124 l-112 118 -105 -108z"/>
<path d="M1392 3657 c-29 -29 -52 -57 -52 -62 0 -6 23 -34 50 -62 45 -47 49
-55 39 -74 -9 -17 -8 -25 5 -37 15 -15 18 -15 38 6 22 21 22 22 3 36 -19 14
-18 17 38 74 l58 59 -52 56 c-29 31 -57 57 -63 57 -7 0 -35 -24 -64 -53z m82
-26 c9 -14 -4 -41 -19 -41 -18 0 -28 17 -21 35 6 17 32 20 40 6z"/>
<path d="M2280 3666 c0 -9 7 -16 16 -16 9 0 14 5 12 12 -6 18 -28 21 -28 4z"/>
<path d="M2360 3580 c0 -13 5 -20 13 -17 6 2 12 10 12 17 0 7 -6 15 -12 18 -8
2 -13 -5 -13 -18z"/>
<path d="M2534 3589 c-3 -6 -1 -16 5 -22 9 -9 14 -8 21 3 9 15 4 30 -10 30 -5
0 -12 -5 -16 -11z"/>
<path d="M2475 3490 c-3 -6 1 -13 10 -16 19 -8 30 0 20 15 -8 14 -22 14 -30 1z"/>
<path d="M1194 3895 c-4 -9 -2 -21 3 -26 14 -14 45 1 41 20 -4 22 -37 26 -44
6z"/>
<path d="M1077 3786 c-7 -17 18 -40 33 -31 5 3 10 15 10 26 0 23 -35 27 -43 5z"/>
<path d="M1013 3733 c-7 -3 -13 -13 -13 -24 0 -14 7 -19 25 -19 18 0 25 5 25
19 0 20 -17 31 -37 24z"/>
<path d="M1670 3891 c0 -26 17 -36 35 -21 18 15 8 40 -16 40 -12 0 -19 -7 -19
-19z"/>
<path d="M1784 3785 c-4 -9 -2 -21 4 -27 15 -15 44 -1 40 19 -4 23 -36 29 -44
8z"/>
<path d="M1861 3721 c-12 -21 -5 -31 20 -31 24 0 33 18 19 35 -17 20 -27 19
-39 -4z"/>
<path d="M2250 3905 c0 -10 7 -15 18 -13 21 4 19 22 -2 26 -10 2 -16 -3 -16
-13z"/>
<path d="M2130 3620 c0 -5 5 -10 11 -10 5 0 7 5 4 10 -3 6 -8 10 -11 10 -2 0
-4 -4 -4 -10z"/>
<path d="M1060 3335 c-15 -18 -7 -43 16 -52 24 -9 46 24 33 48 -12 23 -32 24
-49 4z"/>
<path d="M1797 3343 c-16 -15 -6 -52 15 -59 28 -9 52 20 37 47 -10 19 -39 25
-52 12z"/>
<path d="M486 3093 c-12 -12 -6 -33 9 -33 8 0 15 6 15 14 0 17 -14 28 -24 19z"/>
<path d="M2393 3084 c-7 -18 17 -38 31 -24 11 11 1 40 -14 40 -6 0 -13 -7 -17
-16z"/>
<path d="M1437 2944 c-4 -4 -7 -16 -7 -26 0 -13 7 -18 26 -18 21 0 25 4 22 22
-3 23 -27 35 -41 22z"/>
<path d="M1062 2938 c-19 -19 -14 -46 10 -54 28 -9 52 20 37 47 -11 22 -30 24
-47 7z"/>
<path d="M1800 2935 c-17 -20 -8 -49 16 -53 30 -4 48 21 34 47 -13 25 -33 27
-50 6z"/>
<path d="M846 2885 c-24 -24 -20 -54 10 -67 23 -11 29 -10 45 11 17 21 18 26
6 45 -18 27 -40 31 -61 11z"/>
<path d="M810 2620 c0 -11 7 -20 15 -20 8 0 15 9 15 20 0 11 -7 20 -15 20 -8
0 -15 -9 -15 -20z"/>
<path d="M2008 2889 c-25 -14 -23 -56 2 -69 49 -26 92 28 50 62 -25 21 -29 21
-52 7z"/>
<path d="M2077 2634 c-14 -14 -7 -35 11 -32 9 2 17 10 17 17 0 16 -18 25 -28
15z"/>
<path d="M612 2807 c9 -7 24 -17 33 -22 12 -7 15 -17 10 -37 -4 -16 -10 -26
-14 -23 -4 2 -8 -2 -8 -11 0 -25 42 10 45 38 3 28 -37 68 -67 68 -14 -1 -14
-2 1 -13z"/>
<path d="M561 2792 c-14 -26 -14 -49 -1 -57 5 -3 7 0 4 9 -3 8 0 24 6 36 6 12
9 24 7 27 -3 2 -10 -4 -16 -15z"/>
<path d="M2252 2804 c-22 -15 -31 -67 -14 -78 5 -3 6 8 4 24 -3 23 1 31 26 44
23 12 33 13 44 3 34 -27 26 -75 -14 -90 -7 -2 -11 -7 -8 -10 3 -3 17 0 30 6
18 9 26 22 28 46 6 60 -46 90 -96 55z"/>
<path d="M1161 2418 c-160 -161 -291 -297 -291 -301 0 -4 48 -56 108 -115 59
-59 190 -192 291 -295 l184 -188 44 43 c25 24 158 159 296 301 l250 258 -289
292 c-159 160 -292 293 -296 295 -3 2 -137 -129 -297 -290z m789 -301 c0 -5
-94 -104 -209 -220 -115 -117 -223 -229 -241 -249 -18 -21 -38 -38 -45 -38 -7
0 -32 21 -55 48 -24 26 -135 140 -247 254 l-204 207 252 255 253 254 248 -251
c136 -138 248 -255 248 -260z"/>
<path d="M1433 2544 c-3 -8 -1 -20 6 -27 14 -14 47 15 37 32 -10 16 -36 13
-43 -5z"/>
<path d="M1289 2284 c-85 -85 -155 -158 -157 -162 -1 -4 70 -82 158 -172 l160
-164 168 167 167 167 -160 160 c-88 88 -165 160 -171 160 -6 0 -81 -70 -165
-156z m286 -44 l119 -120 -109 -112 c-119 -123 -133 -134 -144 -122 -4 5 -56
60 -116 122 l-108 112 114 119 c63 65 116 119 119 120 3 0 59 -53 125 -119z"/>
<path d="M1366 2200 l-79 -80 82 -83 83 -83 35 35 c20 20 57 58 82 84 l45 48
-79 79 c-44 44 -82 80 -85 80 -3 0 -41 -36 -84 -80z m104 -95 c-10 -12 -16
-13 -26 -4 -8 6 -14 17 -14 24 0 19 23 25 39 9 12 -11 12 -16 1 -29z"/>
<path d="M1307 2423 c-11 -10 -8 -41 4 -49 6 -3 18 1 27 9 13 13 13 19 2 31
-14 17 -23 20 -33 9z"/>
<path d="M1567 2424 c-12 -12 -8 -42 6 -47 21 -8 39 8 35 29 -3 19 -29 30 -41
18z"/>
<path d="M1217 2344 c-4 -4 -7 -16 -7 -26 0 -14 6 -19 23 -16 14 2 22 10 22
23 0 20 -25 32 -38 19z"/>
<path d="M1661 2336 c-14 -17 -7 -36 14 -36 22 0 29 20 13 36 -13 13 -16 13
-27 0z"/>
<path d="M1140 2255 c-10 -11 -10 -19 -2 -27 15 -15 44 -2 40 19 -4 23 -22 27
-38 8z"/>
<path d="M1736 2263 c-3 -4 -6 -15 -6 -25 0 -24 33 -21 38 3 3 17 -21 33 -32
22z"/>
<path d="M1024 2135 c-4 -9 -2 -21 4 -27 15 -15 44 -1 40 19 -4 23 -36 29 -44
8z"/>
<path d="M1851 2137 c-6 -6 -11 -17 -11 -25 0 -19 44 -11 48 9 4 20 -22 31
-37 16z"/>
<path d="M1142 1998 c2 -13 10 -23 18 -23 8 0 16 10 18 23 3 17 -2 22 -18 22
-16 0 -21 -5 -18 -22z"/>
<path d="M1730 2001 c0 -11 4 -22 8 -25 14 -9 35 12 29 28 -9 23 -37 20 -37
-3z"/>
<path d="M1214 1925 c-4 -9 -2 -21 4 -27 15 -15 44 -1 40 19 -4 23 -36 29 -44
8z"/>
<path d="M1654 1925 c-4 -9 -2 -21 4 -27 15 -15 44 -1 40 19 -4 23 -36 29 -44
8z"/>
<path d="M1304 1845 c-7 -18 3 -35 21 -35 18 0 26 15 19 34 -8 20 -33 21 -40
1z"/>
<path d="M1567 1854 c-4 -4 -7 -16 -7 -26 0 -14 6 -19 23 -16 14 2 22 10 22
23 0 20 -25 32 -38 19z"/>
<path d="M1433 1714 c-3 -8 1 -22 9 -30 13 -13 16 -13 27 0 7 9 11 23 7 31 -7
20 -35 19 -43 -1z"/>
<path d="M1027 2594 c-14 -15 -6 -43 14 -49 25 -8 42 6 37 31 -3 19 -38 31
-51 18z"/>
<path d="M1834 2585 c-9 -23 3 -45 26 -45 25 0 37 25 20 45 -16 19 -39 19 -46
0z"/>
<path d="M397 2554 c-14 -15 -6 -34 14 -34 14 0 19 5 17 17 -3 18 -20 27 -31
17z"/>
<path d="M514 2429 c-10 -17 13 -36 27 -22 12 12 4 33 -11 33 -5 0 -12 -5 -16
-11z"/>
<path d="M2487 2554 c-14 -15 -6 -34 14 -34 14 0 19 5 17 17 -3 18 -20 27 -31
17z"/>
<path d="M2358 2434 c-11 -10 3 -34 19 -34 8 0 13 7 11 17 -3 18 -20 27 -30
17z"/>
<path d="M420 2324 c-9 -10 -10 -18 -2 -26 12 -12 32 -2 32 17 0 21 -16 26
-30 9z"/>
<path d="M2466 2324 c-8 -20 1 -34 20 -34 18 0 18 24 0 39 -11 9 -15 8 -20 -5z"/>
<path d="M576 2191 l-69 -69 36 -42 c48 -56 112 -110 130 -110 9 0 23 7 32 16
15 16 12 21 -41 75 l-58 59 58 59 c32 33 55 64 52 70 -4 6 -22 11 -39 11 -27
0 -45 -12 -101 -69z"/>
<path d="M2194 2249 c-3 -6 20 -37 52 -70 l58 -59 -57 -58 c-31 -32 -57 -63
-57 -69 0 -12 23 -23 47 -23 18 0 82 54 130 110 l36 42 -69 69 c-56 57 -74 69
-101 69 -17 0 -35 -5 -39 -11z"/>
<path d="M415 1940 c-4 -6 -1 -18 6 -26 11 -14 13 -14 21 0 15 26 -12 51 -27
26z"/>
<path d="M2463 1934 c-9 -23 11 -38 26 -20 13 16 7 36 -10 36 -5 0 -12 -7 -16
-16z"/>
<path d="M514 1829 c-10 -17 13 -36 27 -22 12 12 4 33 -11 33 -5 0 -12 -5 -16
-11z"/>
<path d="M392 1703 c2 -10 10 -18 18 -18 22 0 18 29 -3 33 -14 3 -18 -1 -15
-15z"/>
<path d="M2360 1820 c0 -11 6 -20 13 -20 19 0 27 10 20 26 -8 21 -33 17 -33
-6z"/>
<path d="M2485 1710 c-8 -14 3 -30 21 -30 8 0 14 9 14 20 0 21 -24 28 -35 10z"/>
<path d="M1030 1685 c-18 -21 -5 -47 22 -43 26 3 37 36 16 49 -18 12 -24 11
-38 -6z"/>
<path d="M1834 1685 c-9 -23 3 -45 26 -45 25 0 37 25 20 45 -16 19 -39 19 -46
0z"/>
<path d="M816 1633 c-12 -12 -6 -33 9 -33 8 0 15 6 15 14 0 17 -14 28 -24 19z"/>
<path d="M903 1543 c0 -9 4 -10 14 -2 7 6 13 12 13 14 0 1 -6 2 -13 2 -8 0
-14 -6 -14 -14z"/>
<path d="M842 1418 c-26 -26 -6 -68 33 -68 11 0 26 9 33 20 25 40 -32 82 -66
48z"/>
<path d="M2070 1620 c0 -15 5 -20 18 -18 9 2 17 10 17 18 0 8 -8 16 -17 18
-13 2 -18 -3 -18 -18z"/>
<path d="M566 1521 c-10 -11 -16 -28 -13 -38 4 -17 5 -17 6 1 0 11 8 28 18 38
9 10 14 18 11 18 -3 0 -13 -9 -22 -19z"/>
<path d="M646 1530 c11 -20 15 -82 5 -75 -5 2 -11 -4 -14 -15 -4 -16 -2 -18
13 -10 36 19 40 68 8 96 -13 12 -18 13 -12 4z"/>
<path d="M567 1466 c-3 -8 1 -22 9 -31 17 -17 44 -20 44 -5 0 9 -15 14 -33 11
-5 -1 -6 2 -3 7 2 4 1 14 -3 21 -6 10 -10 9 -14 -3z"/>
<path d="M2253 1532 c-28 -21 -27 -74 0 -78 17 -2 17 -1 2 23 -16 24 -16 26 6
49 26 28 23 31 -8 6z"/>
<path d="M2328 1530 c14 -17 16 -34 2 -25 -6 3 -7 -1 -4 -10 4 -8 0 -22 -7
-31 -7 -9 -14 -23 -15 -31 -2 -13 0 -13 19 0 28 19 34 80 9 98 -14 11 -15 11
-4 -1z"/>
<path d="M2002 1418 c-28 -28 -3 -72 39 -66 30 4 47 33 33 56 -14 21 -55 27
-72 10z"/>
<path d="M1434 1325 c-7 -18 3 -35 21 -35 15 0 28 27 19 41 -8 14 -34 11 -40
-6z"/>
<path d="M1053 1344 c-8 -20 8 -48 30 -52 22 -5 42 35 26 54 -16 19 -48 18
-56 -2z"/>
<path d="M1793 1344 c-15 -39 38 -67 60 -32 8 12 7 21 -2 32 -17 21 -50 20
-58 0z"/>
<path d="M484 1176 c-4 -10 -2 -22 4 -28 8 -8 13 -7 18 6 4 10 2 22 -4 28 -8
8 -13 7 -18 -6z"/>
<path d="M2393 1174 c-8 -21 13 -42 28 -27 13 13 5 43 -11 43 -6 0 -13 -7 -17
-16z"/>
<path d="M1790 941 c-7 -15 -6 -23 6 -35 20 -21 27 -20 49 4 15 16 15 22 5 35
-17 21 -47 19 -60 -4z"/>
<path d="M1060 945 c-15 -18 -7 -43 16 -52 24 -9 46 24 33 48 -12 23 -32 24
-49 4z"/>
<path d="M1435 811 c-14 -17 -15 -24 -6 -35 11 -12 4 -24 -36 -67 -26 -29 -42
-49 -35 -45 15 9 15 1 0 -24 -14 -22 -1 -40 63 -91 l36 -29 52 52 c29 28 50
57 47 64 -3 9 1 11 12 7 9 -3 -12 24 -47 59 -57 60 -61 67 -45 76 18 11 18 12
-2 32 l-20 21 -19 -20z m-25 -104 c0 -2 -10 -12 -22 -23 l-23 -19 19 23 c18
21 26 27 26 19z m64 -73 c7 -19 -1 -34 -19 -34 -18 0 -28 17 -21 35 7 20 32
19 40 -1z"/>
<path d="M1270 595 c-7 -9 -20 -13 -27 -10 -25 9 -11 -9 100 -126 l108 -114
114 117 c109 111 134 145 100 132 -8 -4 -23 0 -31 7 -15 12 -26 3 -95 -69 -43
-45 -82 -82 -87 -82 -4 0 -43 36 -86 80 -43 44 -80 80 -81 80 -1 0 -8 -7 -15
-15z"/>
<path d="M400 755 c0 -10 7 -15 18 -13 21 4 19 22 -2 26 -10 2 -16 -3 -16 -13z"/>
<path d="M347 674 c-14 -15 -6 -34 14 -34 14 0 19 5 17 17 -3 18 -20 27 -31
17z"/>
<path d="M522 654 c4 -21 22 -23 26 -1 2 10 -3 17 -13 17 -10 0 -15 -6 -13
-16z"/>
<path d="M605 579 c-10 -15 1 -23 20 -15 9 3 13 10 10 16 -8 13 -22 13 -30 -1z"/>
<path d="M2477 763 c-13 -12 -7 -23 13 -23 11 0 20 7 20 15 0 15 -21 21 -33 8z"/>
<path d="M2537 673 c-4 -3 -7 -12 -7 -20 0 -15 26 -18 34 -4 7 11 -18 33 -27
24z"/>
<path d="M2360 656 c0 -9 7 -16 16 -16 9 0 14 5 12 12 -6 18 -28 21 -28 4z"/>
<path d="M2280 576 c0 -9 7 -16 16 -16 9 0 14 5 12 12 -6 18 -28 21 -28 4z"/>
<path d="M1000 531 c0 -11 6 -21 13 -24 20 -7 37 4 37 24 0 14 -7 19 -25 19
-18 0 -25 -5 -25 -19z"/>
<path d="M1082 477 c-15 -17 1 -42 23 -33 18 6 17 37 -1 43 -6 2 -16 -2 -22
-10z"/>
<path d="M1197 364 c-16 -16 -6 -34 19 -34 19 0 25 5 22 17 -3 19 -29 29 -41
17z"/>
<path d="M1854 539 c-3 -6 1 -18 10 -27 15 -15 17 -15 32 0 19 19 11 38 -16
38 -10 0 -22 -5 -26 -11z"/>
<path d="M1784 475 c-4 -9 -2 -21 4 -27 15 -15 44 -1 40 19 -4 23 -36 29 -44
8z"/>
<path d="M1672 367 c-14 -17 1 -40 23 -35 26 5 30 25 7 37 -15 8 -23 7 -30 -2z"/>
<path d="M627 343 c-13 -12 -7 -23 13 -23 11 0 20 7 20 15 0 15 -21 21 -33 8z"/>
<path d="M2250 336 c0 -10 9 -16 21 -16 24 0 21 23 -4 28 -10 2 -17 -3 -17
-12z"/>
<path d="M1424 135 c-4 -9 0 -23 8 -31 20 -20 50 -7 46 20 -4 26 -45 35 -54
11z"/>
</g>
</svg>
